<?xml version="1.0" encoding="utf-8"?>
<!-- Generator: Adobe Illustrator 16.0.0, SVG Export Plug-In . SVG Version: 6.00 Build 0)  -->
<!DOCTYPE svg PUBLIC "-//W3C//DTD SVG 1.1//EN" "http://www.w3.org/Graphics/SVG/1.1/DTD/svg11.dtd">
<svg version="1.1" id="Layer_1" xmlns="http://www.w3.org/2000/svg" xmlns:xlink="http://www.w3.org/1999/xlink" x="0px" y="0px"
	 width="210px" height="210px" viewBox="0 0 210 210" enable-background="new 0 0 210 210" xml:space="preserve">
<path fill="#FFFFFF" d="M40.104,27.006c-7.658,4.547-22.747,21.88-22.89,26.426v7.525c0,9.538,8.916,17.92,17.01,17.92
	c9.72,0,17.82-8.054,17.82-17.615c0,9.56,7.82,17.616,17.54,17.616c9.722,0,17.292-8.055,17.292-17.616
	c0,9.56,8.315,17.616,18.036,17.616h0.176c9.721,0,18.037-8.055,18.037-17.616c0,9.56,7.57,17.616,17.29,17.616
	s17.542-8.055,17.542-17.616c0,9.56,8.1,17.616,17.818,17.616c8.095,0,17.01-8.382,17.01-17.92V53.43
	c-0.143-4.546-15.23-21.88-22.889-26.426c-23.803-0.836-40.304-0.98-64.897-0.977c-24.594,0-58.122,0.385-64.897,0.976
	L40.104,27.006z M86.754,74.386c-0.93,1.621-2.082,3.103-3.422,4.404c-3.803,3.729-8.917,5.816-14.243,5.812
	c-5.336,0.005-10.461-2.083-14.275-5.815c-1.33-1.302-2.34-2.694-3.265-4.316l-0.004,0.004c-0.924,1.624-2.212,3.016-3.544,4.32
	c-3.815,3.729-8.939,5.815-14.274,5.81c-0.668,0-1.363-0.185-1.926-0.378c-0.78,8.137-1.11,15.913-1.228,21.583v0.029
	c-0.015,2.88-0.03,5.248-0.044,8.538c0.15,17.072-1.69,55.335,7.527,64.736c14.285,3.329,40.57,4.848,66.942,4.856h0.003
	c26.37-0.01,52.656-1.525,66.94-4.855c9.22-9.402,7.377-47.664,7.527-64.737c-0.015-3.29-0.027-5.655-0.042-8.536l-0.002-0.031
	c-0.116-5.67-0.446-13.448-1.227-21.584c-0.563,0.194-1.259,0.378-1.927,0.378c-5.334,0.003-10.457-2.083-14.271-5.812
	c-1.333-1.304-2.62-2.695-3.546-4.32l-0.004-0.002c-0.927,1.62-1.935,3.014-3.265,4.316c-3.813,3.731-8.938,5.819-14.273,5.814
	c-5.326,0.003-10.44-2.084-14.243-5.813c-1.339-1.302-2.491-2.784-3.42-4.404c-0.92,1.619-2.062,3.101-3.39,4.404
	c-3.814,3.731-8.939,5.818-14.275,5.813c-0.193,0-0.386-0.008-0.58-0.014h-0.003c-0.193,0.005-0.387,0.014-0.582,0.014
	c-5.336,0.005-10.461-2.081-14.276-5.812c-1.329-1.303-2.47-2.786-3.39-4.404L86.754,74.386z M72.093,93.34v0.008h0.01
	c5.805,0.012,10.96,0,17.35,6.973c5.165-0.533,10.354-0.793,15.547-0.781h0.004c5.26-0.01,10.514,0.254,15.543,0.78
	c6.391-6.973,11.547-6.96,17.352-6.972h0.011v-0.007c2.741,0,13.713,0,21.358,21.472l8.209,29.455
	c6.086,21.912-1.947,22.449-11.968,22.467c-14.86-0.553-23.088-11.344-23.088-22.135c-8.226,1.348-17.821,2.021-27.418,2.022h-0.004
	c-9.597,0-19.193-0.675-27.418-2.022c0,10.789-8.23,21.58-23.088,22.133c-10.02-0.02-18.053-0.553-11.968-22.467l8.214-29.455
	c7.644-21.47,18.615-21.47,21.358-21.47L72.093,93.34z M104.997,110.214v0.004c-0.014,0.015-15.644,14.368-18.454,19.474
	l10.235-0.41v8.927c0,0.418,4.106,0.248,8.218,0.058H105c4.109,0.189,8.218,0.359,8.218-0.058v-8.925l10.235,0.41
	c-2.811-5.106-18.454-19.475-18.454-19.475v-0.004L104.997,110.214z"/>
</svg>
